<svg width="18" height="19" viewBox="0 0 18 19" xmlns="http://www.w3.org/2000/svg">
<path d="M8.79418 0.75C7.48793 0.75 4.25668 0.8875 2.53793 2.5375C1.30043 3.70625 0.819183 5.49375 0.750433 7.625C0.612933 10.9938 1.36918 13.125 2.60668 14.225C2.88168 14.4313 3.56918 14.9812 4.87543 15.3937V17.1125C4.87543 17.1125 4.87543 17.8 5.28793 17.9375C5.35668 17.9375 5.42543 18.0063 5.49418 18.0063C5.90668 18.0063 6.25043 17.525 6.73168 17.0438C7.14418 16.5625 7.48793 16.2188 7.69418 15.875H9.20668C10.5129 15.875 13.7442 15.7375 15.4629 14.0875C16.7004 12.85 17.1817 11.0625 17.1817 8.79375C17.2504 8.45 17.2504 8.0375 17.2504 7.625C17.1817 5.08125 16.4254 3.3625 15.3942 2.4C14.9817 2.05625 13.1942 0.75 9.34418 0.75H8.79418ZM8.65668 2.05625H9.27543C12.9192 2.05625 14.2942 3.225 14.4317 3.3625C15.2567 4.05 15.7379 5.5625 15.8067 7.55625V7.83125C15.8754 8.24375 15.8754 8.5875 15.8754 8.79375C15.8067 10.8562 15.3942 12.2313 14.5692 13.125C13.1254 14.4312 10.1004 14.5 9.27543 14.5H7.96918L6.86918 15.7375L6.18168 16.4937L6.04418 16.7C5.90668 16.8375 5.70043 17.1125 5.56293 17.1812V14.0875C4.18793 13.7437 3.63793 13.2625 3.50043 13.125C2.53793 12.3 1.98793 10.3063 2.12543 7.625V6.9375C2.26293 5.2875 2.67543 4.1875 3.36293 3.43125C4.80668 2.125 7.83168 2.05625 8.65668 2.05625ZM8.58793 3.56875C8.24418 3.56875 8.24418 4.05 8.58793 4.05C11.1317 4.05 13.3317 5.76875 13.3317 9C13.3317 9.34375 13.8129 9.34375 13.8129 9C13.8129 5.49375 11.4754 3.5 8.58793 3.56875ZM5.86337 4.20469C5.7076 4.18602 5.55069 4.22895 5.42612 4.32431C4.73862 4.66806 4.05043 5.35694 4.25668 6.11319C4.25668 6.11319 4.39418 6.73125 5.15043 8.0375C5.56293 8.65625 5.90668 9.20625 6.25043 9.61875C6.59418 10.1 7.14418 10.65 7.69418 11.0625C8.79418 11.9562 10.5129 12.85 11.2692 13.0562C11.9567 13.2625 12.7129 12.575 13.0567 11.8875C13.1942 11.6125 13.1254 11.2688 12.8504 11.0625C12.4379 10.65 11.7504 10.1687 11.2692 9.89375C10.9254 9.6875 10.5129 9.825 10.3754 10.0312L10.0317 10.4438C9.89418 10.65 9.55043 10.65 9.55043 10.65C7.28168 10.0312 6.66293 7.69375 6.66293 7.69375C6.66293 7.69375 6.66293 7.41875 6.86918 7.2125L7.28168 6.86875C7.48793 6.73125 7.62543 6.31875 7.41918 5.975C7.28168 5.76875 7.07543 5.35625 6.86918 5.15C6.66293 4.875 6.25043 4.39375 6.25043 4.39375C6.14613 4.2893 6.00988 4.22275 5.86337 4.20469ZM9.06918 4.94375C8.72543 4.875 8.65668 5.425 9.00043 5.425C10.9254 5.5625 12.0254 6.86875 11.9567 8.51875C11.8879 8.8625 12.4379 8.8625 12.4379 8.51875C12.5067 6.59375 11.2692 5.0125 9.06918 4.94375ZM9.27543 6.25C8.93168 6.18125 8.93168 6.73125 9.27543 6.73125C10.1004 6.73125 10.5129 7.2125 10.5129 8.0375C10.5817 8.38125 11.0629 8.38125 11.0629 8.0375C10.9942 6.9375 10.3754 6.25 9.27543 6.25Z"/>
</svg>
