<svg width="210" height="75" viewBox="0 0 210 75" xmlns="http://www.w3.org/2000/svg">
<path d="M11.9131 30.9261C14.102 30.9261 15.8261 31.4617 17.0852 32.5329C18.3637 33.5847 19.0029 35.0259 19.0029 36.8567V37.1781C19.0029 39.0088 18.3637 40.4598 17.0852 41.531C15.8261 42.5828 14.102 43.1086 11.9131 43.1086H3.63205V50.0909H0V30.9261H11.9131ZM11.826 39.8366C12.9495 39.8366 13.8115 39.6126 14.412 39.1646C15.0125 38.6972 15.3127 38.035 15.3127 37.1781V36.8567C15.3127 35.9997 15.0125 35.3473 14.412 34.8993C13.8115 34.4319 12.9495 34.1982 11.826 34.1982H3.63205V39.8366H11.826Z"/>
<path d="M42.7781 49.5358V50.0909H39.0879L37.1121 45.7087H27.0004L25.0246 50.0909H21.3344V49.5358L30.0514 30.9261H34.0611L42.7781 49.5358ZM35.6011 42.4367L32.0563 34.6072L28.5114 42.4367H35.6011Z"/>
<path d="M52.3821 30.9261V46.8189H65.8643V50.0909H48.7501V30.9261H52.3821Z"/>
<path d="M75.381 30.9261V46.8189H88.8631V50.0909H71.7489V30.9261H75.381Z"/>
<path d="M114.186 49.5358V50.0909H110.496L108.52 45.7087H98.4089L96.433 50.0909H92.7429V49.5358L101.46 30.9261H105.47L114.186 49.5358ZM107.01 42.4367L103.465 34.6072L99.9198 42.4367H107.01Z"/>
<path d="M129.369 30.9261C132.876 30.9261 135.529 31.7247 137.331 33.3217C139.152 34.9188 140.062 37.256 140.062 40.3332V40.713C140.062 43.7903 139.152 46.1275 137.331 47.7245C135.529 49.3021 132.876 50.0909 129.369 50.0909H120.158V30.9261H129.369ZM129.369 46.8189C131.733 46.8189 133.486 46.3222 134.629 45.3289C135.791 44.3356 136.372 42.8165 136.372 40.7714V40.304C136.372 36.2335 134.028 34.1982 129.34 34.1982H123.791V46.8189H129.369Z"/>
<path d="M150.905 30.9261V50.0909H147.273V30.9261H150.905Z"/>
<path d="M167.985 50.4415C166.126 50.4415 164.489 50.0812 163.075 49.3605C161.68 48.6204 160.595 47.5882 159.82 46.2638C159.046 44.9394 158.658 43.4008 158.658 41.6479V30.9261H162.29V41.7063C162.29 43.3813 162.784 44.6959 163.772 45.6503C164.779 46.5851 166.184 47.0526 167.985 47.0526C169.787 47.0526 171.191 46.5851 172.199 45.6503C173.206 44.6959 173.709 43.3813 173.709 41.7063V30.9261H177.342V41.6479C177.342 43.4008 176.954 44.9394 176.179 46.2638C175.404 47.5882 174.31 48.6204 172.896 49.3605C171.482 50.0812 169.845 50.4415 167.985 50.4415Z"/>
<path d="M210 50.0909H206.397V35.7465L199.394 50.0909H195.646L188.644 35.6881V50.0909H185.041V30.9261H190.154L197.535 45.9716L204.886 30.9261H210V50.0909Z"/>
<path fill-rule="evenodd" clip-rule="evenodd" d="M104.818 18.8182H106.004L107.326 1.04335C107.037 1.04335 106.746 1.03265 106.453 1.02188C106.156 1.01097 105.858 1 105.558 1C104.962 1 104.178 1 103.496 1.06503L104.818 18.8182ZM109.065 18.8182L107.743 1.07229C109.014 1.14113 110.28 1.27619 111.537 1.47692L110.244 18.8182H109.065ZM115.72 2.43792C114.506 2.08844 113.276 1.80145 112.033 1.57808L113.312 18.8182H114.498L115.72 2.43792ZM119.859 3.91918C118.716 3.42606 117.548 2.99433 116.359 2.6258L117.559 18.8182H118.752L119.859 3.91918ZM103.057 1.08665C101.786 1.17161 100.519 1.32356 99.2629 1.54186L100.549 18.8181H101.735L103.057 1.08665ZM83.5604 18.8181L82.8418 8.94803C83.7473 8.22547 84.6815 7.5535 85.6373 6.91765L84.7534 18.8181H83.5604ZM94.4336 2.72694C93.2478 3.10989 92.0836 3.54342 90.9553 4.03476L92.0549 18.8182H93.2406L94.4336 2.72694ZM86.9167 6.1518C87.9551 5.52799 89.0249 4.95882 90.1219 4.44657L89.0511 18.8182H87.8582L86.9167 6.1518ZM98.7886 1.62865C97.5475 1.8633 96.3194 2.16235 95.1091 2.52461L96.3236 18.8182H97.5094L98.7886 1.62865ZM120.729 4.30205C121.8 4.80784 122.906 5.37143 123.955 5.97838L123 18.8181H121.807L120.729 4.30205ZM80.5278 18.8183H79.342L78.8821 12.626C79.6103 11.8456 80.3697 11.0966 81.1602 10.3788L80.5278 18.8183ZM130.308 18.8182H131.494L131.975 12.3153C131.238 11.5397 130.464 10.8003 129.654 10.097L130.308 18.8182ZM125.12 6.71538C126.121 7.3416 127.079 8.00876 127.994 8.71686L127.247 18.8181H126.054L125.12 6.71538ZM74.2039 18.8182H76.2664L76.5251 15.3933C75.6878 16.49 74.9127 17.6334 74.2039 18.8182ZM136.92 18.8182H134.555L134.268 14.9742C135.231 16.1983 136.117 17.4821 136.92 18.8182Z"/>
<path d="M56.5019 73H58.3512V69.9694H59.9483L61.6055 73H63.5749L61.7316 69.7219L61.8877 69.6374C61.9957 69.5891 62.1218 69.4986 62.2779 69.3657C62.4281 69.2329 62.5782 69.076 62.7223 68.8888C62.8664 68.7077 62.9925 68.4602 63.1005 68.1584C63.2086 67.8565 63.2626 67.5366 63.2626 67.1864C63.2626 66.3895 62.9864 65.7194 62.4281 65.1701C61.8697 64.6207 61.1612 64.343 60.3086 64.343H56.4958L56.5019 73ZM61.4193 67.1864C61.4193 67.5003 61.3113 67.766 61.0891 67.9833C60.8669 68.2006 60.5847 68.3032 60.2485 68.3032H58.3452V66.0152H60.2485C60.5847 66.0152 60.8669 66.1299 61.0891 66.3473C61.3113 66.5706 61.4193 66.8483 61.4193 67.1864Z" />
<path d="M77.4106 71.3338V69.414H80.9111V67.7478H77.4106V66.0152H81.8958V64.343H75.5613V73H82.0219V71.3338H77.4106Z"/>
<path d="M98.4995 69.3537H96.404L97.4547 66.5103L98.4995 69.3537ZM99.1119 70.9595L99.8504 73H101.82L98.4334 64.343H96.47L93.0836 73H95.053L95.7915 70.9595H99.1119Z"/>
<path d="M119.222 73V71.3338H115.229V64.343H113.38V73H119.222Z"/>
<path d="M129.359 64.343V66.0152H131.821V73H133.664V66.0152H136.12V64.343H129.359Z"/>
<path d="M148.785 64.343H146.815L149.89 69.9091V73H151.739V69.9091L154.813 64.343H152.844L150.814 68.0557L148.785 64.343Z"/>
</svg>
